<?xml version="1.0"?>
<svg xmlns="http://www.w3.org/2000/svg" height="512px" viewBox="0 0 449 449.344" width="512px"><g><path d="m436.925781 425.320312-38.289062-66.289062c-1.046875 1.214844-2.167969 2.351562-3.289063 3.488281-.261718.265625-.496094.550781-.800781.800781-1.925781 1.871094-3.957031 3.628907-6.078125 5.273438-.554688.429688-1.105469.847656-1.671875 1.261719-2.058594 1.53125-4.195313 2.953125-6.402344 4.257812-.140625.085938-.285156.191407-.4375.277344-2.371093 1.347656-4.820312 2.558594-7.328125 3.625-.609375.265625-1.207031.511719-1.816406.761719-4.453125 1.808594-9.074219 3.167968-13.800781 4.046875l38.398437 66.472656zm0 0" data-original="#000000" class="active-path" data-old_color="#000000" fill="#C7EBFF"/><path d="m343.859375 368c17.359375.015625 33.765625-7.949219 44.488281-21.601562 15.515625-19.996094 15.660156-47.921876.359375-68.082032-15.304687-20.160156-42.238281-27.53125-65.671875-17.964844-23.4375 9.5625-37.523437 33.675782-34.351562 58.785157 3.175781 25.109375 22.820312 44.957031 47.894531 48.390625 2.414063.320312 4.847656.476562 7.28125.472656zm-39.6875-56c0-22.089844 17.910156-40 40-40s40 17.910156 40 40-17.910156 40-40 40c-22.082031-.027344-39.972656-17.917969-40-40zm0 0" data-original="#000000" class="active-path" data-old_color="#000000" fill="#C7EBFF"/><path d="m331.308594 382.839844c-5-.9375-9.882813-2.402344-14.570313-4.375-5.515625-2.285156-10.726562-5.238282-15.519531-8.800782l-1.0625-.800781c-2.257812-1.738281-4.410156-3.605469-6.449219-5.597656-.144531-.144531-.277343-.304687-.421875-.449219-1.21875-1.214844-2.402344-2.449218-3.546875-3.761718l-38.285156 66.289062 41.511719 24zm0 0" data-original="#000000" class="active-path" data-old_color="#000000" fill="#C7EBFF"/><path d="m368.171875 312c0 13.253906-10.746094 24-24 24s-24-10.746094-24-24 10.746094-24 24-24 24 10.746094 24 24zm0 0" data-original="#000000" class="active-path" data-old_color="#000000" fill="#C7EBFF"/><path d="m410.652344 284.398438c.558594 1.34375 1.023437 2.730468 1.503906 4.113281.273438.800781.582031 1.511719.800781 2.289062.660157 2.132813 1.226563 4.328125 1.695313 6.589844.136718.671875.207031 1.363281.320312 2.023437.269532 1.523438.558594 3.035157.726563 4.585938h32.472656v-304h-448v304h272.449219c.167968-1.550781.453125-3.0625.726562-4.585938.113282-.660156.183594-1.351562.320313-2.023437.464843-2.226563 1.03125-4.425781 1.695312-6.589844.242188-.800781.550781-1.511719.800781-2.273437.480469-1.390625.953126-2.785156 1.511719-4.136719.367188-.871094.800781-1.710937 1.199219-2.566406.554688-1.183594 1.089844-2.398438 1.703125-3.535157.464844-.882812.992187-1.722656 1.496094-2.578124.632812-1.078126 1.257812-2.160157 1.945312-3.199219.558594-.847657 1.152344-1.65625 1.746094-2.472657.71875-1 1.4375-1.992187 2.207031-2.949218.632813-.800782 1.304688-1.554688 1.96875-2.3125.796875-.929688 1.597656-1.832032 2.460938-2.714844.707031-.726562 1.433594-1.4375 2.167968-2.132812.882813-.839844 1.78125-1.660157 2.707032-2.464844.796875-.65625 1.550781-1.304688 2.351562-1.9375.960938-.800782 1.941406-1.488282 2.933594-2.199219.800781-.585937 1.65625-1.160156 2.503906-1.710937 1.042969-.671876 2.105469-1.3125 3.203125-1.9375.863281-.496094 1.734375-1 2.621094-1.464844 1.121094-.589844 2.265625-1.117188 3.425781-1.648438.894532-.414062 1.785156-.796875 2.703125-1.214844 1.207031-.488281 2.449219-.917968 3.6875-1.351562.914063-.3125 1.816407-.648438 2.746094-.929688 1.320313-.398437 2.664063-.710937 4-1.039062.886719-.207031 1.765625-.457031 2.671875-.640625 1.519531-.292969 3.0625-.496094 4.613281-.703125.800781-.101562 1.523438-.246094 2.304688-.328125 2.328125-.230469 4.730469-.359375 7.128906-.359375s4.800781.128906 7.113281.359375c.800782.082031 1.535156.226563 2.304688.328125 1.550781.207031 3.09375.410156 4.613281.703125.90625.183594 1.785156.433594 2.671875.640625 1.351562.328125 2.695312.640625 4 1.039062.929688.28125 1.832031.617188 2.746094.9375 1.238281.425782 2.480468.855469 3.6875 1.34375.917968.375 1.808594.800782 2.710937 1.214844 1.152344.53125 2.296875 1.066406 3.417969 1.648438.886719.464844 1.757812.96875 2.621094 1.464844 1.082031.625 2.144531 1.265624 3.203125 1.9375.847656.550781 1.679687 1.125 2.503906 1.710937.992187.710937 1.972656 1.441406 2.933594 2.199219.800781.632812 1.601562 1.28125 2.351562 1.9375.917969.800781 1.820313 1.621094 2.707031 2.464844.734376.695312 1.460938 1.40625 2.167969 2.132812.847657.882812 1.664063 1.785156 2.460938 2.714844.664062.757812 1.335937 1.519531 1.96875 2.3125.800781.957031 1.488281 1.949218 2.207031 2.949218.59375.800782 1.183594 1.601563 1.746094 2.472657.6875 1.039062 1.3125 2.121093 1.945312 3.199219.503906.855468 1.03125 1.703124 1.492188 2.585937.617187 1.144531 1.152344 2.328125 1.699218 3.511719.398438.863281.839844 1.710937 1.207032 2.589844zm-18.480469-76.398438h-336c-4.417969 0-8-3.582031-8-8s3.582031-8 8-8h336c4.417969 0 8 3.582031 8 8s-3.582031 8-8 8zm0-48h-336c-4.417969 0-8-3.582031-8-8s3.582031-8 8-8h336c4.417969 0 8 3.582031 8 8s-3.582031 8-8 8zm0-48h-336c-4.417969 0-8-3.582031-8-8s3.582031-8 8-8h336c4.417969 0 8 3.582031 8 8s-3.582031 8-8 8zm0-48h-336c-4.417969 0-8-3.582031-8-8s3.582031-8 8-8h336c4.417969 0 8 3.582031 8 8s-3.582031 8-8 8zm0 0" data-original="#000000" class="active-path" data-old_color="#000000" fill="#C7EBFF"/></g> </svg>
