<svg height="612pt" viewBox="-19 -60 612.00212 612" width="612pt" xmlns="http://www.w3.org/2000/svg"><path d="m294.257812 349.273438c.007813-5.230469.300782-10.460938.878907-15.65625h-199.796875c-22.902344-.023438-41.464844-18.582032-41.492188-41.484376v-278.445312c-21.347656 1.96875-37.691406 19.867188-37.71875 41.308594v274.851562c.03125 22.902344 18.585938 41.460938 41.488282 41.492188h238.378906c-1.15625-7.304688-1.738282-14.675782-1.738282-22.066406zm0 0" fill="#d4e1f4"/><path d="m442.289062 55.957031v152.761719c-2.796874-.175781-5.621093-.261719-8.472656-.261719-3.035156 0-6.03125.101563-9.019531.300781v-92.40625h-407.304687v212.734376c.027343 22.765624 18.472656 41.207031 41.230468 41.230468h236.886719c.722656 4.636719 1.683594 9.230469 2.871094 13.769532.328125 1.25.679687 2.5 1.039062 3.722656h-240.796875c-32.417968-.03125-58.6835935-26.304688-58.722656-58.722656v-273.128907c.0351562-32.417969 26.304688-58.6875 58.722656-58.722656h324.84375c32.417969.039063 58.683594 26.304687 58.722656 58.722656zm-17.492187 42.902344v-42.902344c-.027344-22.757812-18.472656-41.203125-41.230469-41.230469h-324.84375c-22.761718.023438-41.207031 18.46875-41.230468 41.230469v42.902344zm0 0" fill="#0635c9"/><path d="m314.914062 377.714844c-.113281-.4375-.214843-.871094-.3125-1.324219.140626.433594.25.878906.3125 1.324219zm0 0" fill="#0635c9"/><g fill="#1ae5be"><path d="m442.289062 208.71875c-2.796874-.175781-5.621093-.261719-8.472656-.261719-3.035156 0-6.03125.101563-9.019531.300781-41.707031 2.765626-80.003906 24.003907-104.441406 57.921876-24.4375 33.914062-32.457031 76.964843-21.875 117.40625.328125 1.25.679687 2.5 1.039062 3.722656 20.003907 68.1875 87.933594 110.554687 157.96875 98.527344 70.035157-12.023438 119.9375-74.625 116.050781-145.578126-3.882812-70.949218-60.320312-127.726562-131.25-132.039062zm-8.472656 262.113281c-55.59375.007813-104.222656-37.4375-118.414062-91.191406l-.488282-1.914063v-.011718c-.113281-.4375-.214843-.871094-.3125-1.324219-8.511718-36.359375.023438-74.613281 23.1875-103.90625 23.15625-29.292969 58.414063-46.421875 95.753907-46.535156h.273437c67.625 0 122.441406 54.820312 122.441406 122.441406 0 67.625-54.816406 122.441406-122.441406 122.441406zm0 0"/><path d="m466.339844 264.679688h-.0625c-13.609375-.015626-26.65625 5.417968-36.234375 15.082031l-20.289063 20.390625c-3.40625 3.425781-3.390625 8.964844.035156 12.371094 3.425782 3.402343 8.964844 3.386718 12.371094-.039063l20.28125-20.375c6.300782-6.371094 14.890625-9.949219 23.851563-9.9375h.03125c13.652343.003906 25.949219 8.234375 31.160156 20.84375 5.210937 12.617187 2.300781 27.125-7.367187 36.753906l-20.390626 20.289063c-3.425781 3.410156-3.433593 8.953125-.023437 12.371094 3.40625 3.421874 8.945313 3.433593 12.367187.027343l20.375-20.28125c14.691407-14.621093 19.117188-36.660156 11.210938-55.820312-7.910156-19.160157-26.589844-31.664063-47.316406-31.675781zm0 0"/><path d="m396.847656 385.375c3.414063 3.414062 8.953125 3.414062 12.371094 0l61.582031-61.582031c3.417969-3.417969 3.417969-8.957031 0-12.371094-3.417969-3.417969-8.957031-3.417969-12.367187 0l-61.585938 61.585937c-1.644531 1.632813-2.566406 3.859376-2.566406 6.183594 0 2.316406.921875 4.542969 2.566406 6.183594zm0 0"/><path d="m445.484375 384.300781-20.285156 20.390625c-6.308594 6.359375-14.898438 9.929688-23.851563 9.917969h-.039062c-13.648438.003906-25.949219-8.226563-31.15625-20.839844-5.210938-12.617187-2.296875-27.132812 7.382812-36.753906l20.375-20.296875c2.324219-2.175781 3.28125-5.449219 2.496094-8.535156-.789062-3.089844-3.1875-5.503906-6.277344-6.308594-3.085937-.800781-6.359375.140625-8.550781 2.453125l-20.390625 20.289063c-14.6875 14.625-19.109375 36.667968-11.199219 55.824218 7.910157 19.160156 26.59375 31.660156 47.320313 31.660156h.0625c13.605468.023438 26.65625-5.410156 36.234375-15.082031l20.277343-20.375c3.40625-3.421875 3.394532-8.960937-.023437-12.367187-3.425781-3.414063-8.960937-3.398438-12.375.023437zm0 0"/><path d="m195.859375 81.867188h.074219c13.496094.023437 24.460937-10.902344 24.480468-24.402344.019532-13.503906-10.910156-24.464844-24.410156-24.484375h-.070312c-13.5-.019531-24.460938 10.90625-24.480469 24.40625-.027344 13.5 10.902344 24.460937 24.40625 24.480469zm-4.835937-29.371094c1.296874-1.304688 3.070312-2.03125 4.910156-2.027344h.007812c3.839844.007812 6.953125 3.121094 6.949219 6.960938-.003906 3.839843-3.117187 6.949218-6.957031 6.945312h-.027344c-2.808594-.003906-5.34375-1.707031-6.410156-4.304688-1.070313-2.601562-.46875-5.59375 1.527344-7.574218zm0 0"/><path d="m125.324219 81.640625h.078125c13.46875-.007813 24.394531-10.898437 24.453125-24.363281.035156-13.492188-10.867188-24.464844-24.363281-24.523438h-.089844c-13.496094-.019531-24.460938 10.910156-24.484375 24.40625-.019531 13.5 10.910156 24.460938 24.40625 24.480469zm-4.820313-29.371094c1.296875-1.296875 3.058594-2.023437 4.898438-2.023437h.027344c3.839843.007812 6.945312 3.132812 6.933593 6.972656v.011719c-.019531 3.832031-3.128906 6.925781-6.960937 6.921875h-.011719c-2.8125-.007813-5.34375-1.710938-6.414063-4.3125-1.070312-2.59375-.464843-5.585938 1.527344-7.570313zm0 0"/><path d="m54.886719 81.433594c9.871093 0 18.78125-5.941406 22.578125-15.058594 3.789062-9.117188 1.726562-19.617188-5.238282-26.621094-4.558593-4.621094-10.777343-7.21875-17.265624-7.210937h-.074219c-13.5-.023438-24.460938 10.90625-24.480469 24.410156-.019531 13.5 10.90625 24.460937 24.40625 24.480469zm-6.945313-24.476563c.003906-3.832031 3.113282-6.929687 6.945313-6.921875h.023437c3.839844.011719 6.945313 3.128906 6.933594 6.96875-.019531 3.832032-3.125 6.925782-6.957031 6.9375h-.023438c-3.835937-.023437-6.933593-3.148437-6.921875-6.984375zm0 0"/></g></svg>